# xmcd
#
# Track frame offsets:
#	150
#	13385
#	29687
#	45421
#	60183
#	78453
#	94318
#	110633
#	122713
#	137126
#	153292
#	166630
#	178443
#	192835
#
# Disc length: 2827 seconds
#
# Revision: 1
# Processed by: cddbd v1.5.2PL0 Copyright (c) Steve Scherf et al.
# Submitted via: EasyCDDAExtractor 6.5.4.1
#
DISCID=ba0b090e
DTITLE=Professor Longhair - Rock 'n' Roll Gumbo
DYEAR=1974
DGENRE=Blues
TTITLE0=Mardi Gras In New Orleans
TTITLE1=Hey Now Baby
TTITLE2=Junco Partner
TTITLE3=Meet Me Tomorrow Night
TTITLE4=Doin' It
TTITLE5=How Long Has That Train Been Gone
TTITLE6=Tipitina
TTITLE7=Rockin' Pneumonia
TTITLE8=Jambalaya
TTITLE9=Mean Ol' World
TTITLE10=Stag-O-Lee
TTITLE11=Mess Around
TTITLE12=Rum And Coke
TTITLE13=(They Call Me) Dr. Professor Longhair
EXTD=recorded April 3&4, 1974\\r\nwith Clarence 'Gatemouth' Brown on guitar an
EXTD=d violin
EXTT0=
EXTT1=
EXTT2=
EXTT3=
EXTT4=
EXTT5=
EXTT6=
EXTT7=
EXTT8=
EXTT9=
EXTT10=
EXTT11=
EXTT12=
EXTT13=
PLAYORDER=
